<svg width="32" height="32" viewBox="0 0 32 32" fill="none" xmlns="http://www.w3.org/2000/svg">
<path d="M22.6665 12.0026C25.5665 12.0187 27.1371 12.1473 28.1616 13.1719C29.3332 14.3434 29.3332 16.229 29.3332 20.0003V21.3336C29.3332 25.1048 29.3332 26.9905 28.1616 28.162C26.99 29.3336 25.1044 29.3336 21.3332 29.3336H10.6665C6.89527 29.3336 5.00965 29.3336 3.83808 28.162C2.6665 26.9905 2.6665 25.1048 2.6665 21.3336L2.6665 20.0003C2.6665 16.229 2.6665 14.3434 3.83808 13.1718C4.86259 12.1473 6.43314 12.0187 9.33317 12.0026" stroke="#6666FF" stroke-width="2" stroke-linecap="round"/>
<path d="M16 20L16 2.66667M16 2.66667L20 7.33333M16 2.66667L12 7.33333" stroke="#6666FF" stroke-width="2" stroke-linecap="round" stroke-linejoin="round"/>
</svg>
